<svg width="40" height="40" viewBox="0 0 40 40" fill="none" xmlns="http://www.w3.org/2000/svg">
<path d="M33.75 20H31.25V22.5H30C28.625 22.5 27.5 23.625 27.5 25V27.5C27.5 28.875 28.625 30 30 30H35V32.5H27.5V35H31.25V37.5H33.75V35H35C36.375 35 37.5 33.875 37.5 32.5V30C37.5 28.625 36.375 27.5 35 27.5H30V25H37.5V22.5H33.75V20ZM35 10H27.5V5C27.5 3.625 26.375 2.5 25 2.5H15C13.625 2.5 12.5 3.625 12.5 5V10H5C3.625 10 2.5 11.125 2.5 12.5V30C2.5 31.375 3.625 32.5 5 32.5H23.75V30H5V12.5H35V17.5H37.5V12.5C37.5 11.125 36.375 10 35 10ZM25 10H15V5H25V10Z" fill="black"/>
</svg>
