<svg width="40" height="40" viewBox="0 0 40 40" fill="none" xmlns="http://www.w3.org/2000/svg">
<path d="M35.998 18.272C35.978 19.268 35.118 20 34.124 20H22C21.4696 20 20.9609 19.7893 20.5858 19.4142C20.2107 19.0391 20 18.5304 20 18V5.876C20 4.88 20.732 4.022 21.728 4.002L22 4C23.8614 3.99991 25.7042 4.37104 27.4205 5.09168C29.1368 5.81231 30.6922 6.86797 31.9956 8.19691C33.299 9.52585 34.3244 11.1014 35.0116 12.8313C35.6988 14.5613 36.0342 16.4109 35.998 18.272ZM22 6V18H34C34 14.8174 32.7357 11.7652 30.4853 9.51472C28.2348 7.26428 25.1826 6 22 6ZM18 9.038C18.0001 8.9002 17.9718 8.76386 17.9167 8.63754C17.8616 8.51121 17.7811 8.39764 17.68 8.30393C17.579 8.21022 17.4597 8.1384 17.3296 8.09298C17.1995 8.04757 17.0614 8.02953 16.924 8.04C14.2548 8.24605 11.7006 9.21309 9.56429 10.8265C7.42793 12.4399 5.79897 14.632 4.87048 17.143C3.942 19.654 3.75293 22.3785 4.32568 24.9937C4.89844 27.6088 6.20901 30.0049 8.10203 31.898C9.99506 33.791 12.3912 35.1016 15.0063 35.6743C17.6215 36.2471 20.346 36.058 22.857 35.1295C25.368 34.201 27.5601 32.5721 29.1735 30.4357C30.7869 28.2994 31.7539 25.7452 31.96 23.076C31.9705 22.9386 31.9524 22.8005 31.907 22.6704C31.8616 22.5403 31.7898 22.421 31.6961 22.32C31.6024 22.2189 31.4888 22.1384 31.3625 22.0833C31.2361 22.0282 31.0998 21.9999 30.962 22H21C20.2043 22 19.4413 21.6839 18.8787 21.1213C18.3161 20.5587 18 19.7956 18 19V9.038ZM6 22C5.99957 19.1638 7.00369 16.4192 8.83425 14.2529C10.6648 12.0866 13.2035 10.6387 16 10.166V19C16 19.6566 16.1293 20.3068 16.3806 20.9134C16.6319 21.52 17.0002 22.0712 17.4645 22.5355C18.4021 23.4732 19.6739 24 21 24H29.834C29.3245 26.9601 27.7238 29.6217 25.3478 31.4593C22.9719 33.2969 19.9933 34.177 17.0002 33.9258C14.007 33.6747 11.2168 32.3105 9.18031 30.1026C7.14382 27.8948 6.00904 25.0036 6 22Z" fill="black"/>
</svg>
