<svg width="40" height="40" viewBox="0 0 40 40" fill="none" xmlns="http://www.w3.org/2000/svg">
<path d="M37.4977 8.74917C37.4977 9.56982 37.0451 10.3824 36.1657 11.1406C35.2864 11.8988 33.9975 12.5877 32.3727 13.168C30.7479 13.7483 28.819 14.2086 26.6961 14.5226C24.5731 14.8367 22.2978 14.9983 20 14.9983C15.3593 14.9983 10.9087 14.3399 7.62727 13.168C4.34582 11.996 2.50232 10.4065 2.50232 8.74917C2.50232 7.92851 2.95491 7.1159 3.83425 6.35771C4.71359 5.59953 6.00246 4.91063 7.62727 4.33034C9.25208 3.75005 11.181 3.28974 13.3039 2.97569C15.4268 2.66164 17.7022 2.5 20 2.5C22.2978 2.5 24.5731 2.66164 26.6961 2.97569C28.819 3.28974 30.7479 3.75005 32.3727 4.33034C33.9975 4.91063 35.2864 5.59953 36.1657 6.35771C37.0451 7.1159 37.4977 7.92851 37.4977 8.74917Z" stroke="black" stroke-linecap="round" stroke-linejoin="round"/>
<path d="M37.4977 31.2461C37.4977 32.3431 36.6892 33.4207 35.1534 34.3707C33.6177 35.3207 31.4088 36.1096 28.7488 36.658C26.0888 37.2065 23.0715 37.4953 20 37.4953C16.9285 37.4953 13.9111 37.2065 11.2512 36.658C8.59117 36.1096 6.3823 35.3207 4.84656 34.3707C3.31082 33.4207 2.50232 32.3431 2.50232 31.2461" stroke="black" stroke-linecap="round" stroke-linejoin="round"/>
<path d="M37.4977 23.7471C37.4977 24.844 36.6892 25.9217 35.1534 26.8717C33.6177 27.8216 31.4088 28.6105 28.7488 29.159C26.0888 29.7075 23.0715 29.9962 20 29.9962C16.9285 29.9962 13.9111 29.7075 11.2512 29.159C8.59117 28.6105 6.3823 27.8216 4.84656 26.8717C3.31082 25.9217 2.50232 24.844 2.50232 23.7471" stroke="black" stroke-linecap="round" stroke-linejoin="round"/>
<path d="M37.4977 16.248C37.4977 17.345 36.6892 18.4226 35.1534 19.3726C33.6177 20.3226 31.4088 21.1115 28.7488 21.66C26.0888 22.2085 23.0715 22.4972 20 22.4972C16.9285 22.4972 13.9111 22.2085 11.2512 21.66C8.59117 21.1115 6.3823 20.3226 4.84656 19.3726C3.31082 18.4226 2.50232 17.345 2.50232 16.248" stroke="black" stroke-linecap="round" stroke-linejoin="round"/>
<path d="M2.50232 8.74902V31.246" stroke="black" stroke-linecap="round" stroke-linejoin="round"/>
<path d="M37.4977 8.74902V31.246" stroke="black" stroke-linecap="round" stroke-linejoin="round"/>
</svg>
